#N canvas 612 117 1298 840 12;
#X obj 27 20 r num1;
#X msg 29 92 \$1 1000;
#X obj 29 118 osc~;
#X obj 95 20 r num2;
#X msg 97 92 \$1 1000;
#X obj 97 118 osc~;
#X obj 163 20 r num3;
#X msg 165 92 \$1 1000;
#X obj 165 118 osc~;
#X obj 231 20 r num4;
#X msg 233 92 \$1 1000;
#X obj 233 118 osc~;
#X obj 300 20 r num5;
#X msg 302 92 \$1 1000;
#X obj 302 118 osc~;
#X obj 368 20 r num6;
#X msg 370 92 \$1 1000;
#X obj 370 118 osc~;
#X obj 436 20 r num7;
#X msg 438 92 \$1 1000;
#X obj 438 118 osc~;
#X obj 504 20 r num8;
#X msg 506 92 \$1 1000;
#X obj 506 118 osc~;
#X obj 572 20 r num9;
#X msg 574 92 \$1 1000;
#X obj 574 118 osc~;
#X obj 640 20 r num10;
#X msg 642 92 \$1 1000;
#X obj 642 118 osc~;
#X obj 708 20 r num11;
#X msg 710 92 \$1 1000;
#X obj 710 118 osc~;
#X obj 776 20 r num12;
#X msg 778 92 \$1 1000;
#X obj 778 118 osc~;
#X obj 845 20 r num13;
#X msg 847 92 \$1 1000;
#X obj 847 118 osc~;
#X obj 913 20 r num14;
#X msg 915 92 \$1 1000;
#X obj 915 118 osc~;
#X obj 981 20 r num15;
#X msg 983 92 \$1 1000;
#X obj 983 118 osc~;
#X obj 1049 21 r num16;
#X msg 1051 92 \$1 1000;
#X obj 1051 118 osc~;
#X obj 97 144 +~;
#X obj 165 144 +~;
#X obj 233 144 +~;
#X obj 302 144 +~;
#X obj 370 191 +~;
#X obj 438 144 +~;
#X obj 506 144 +~;
#X obj 574 144 +~;
#X obj 710 144 +~;
#X obj 778 144 +~;
#X obj 847 144 +~;
#X obj 915 144 +~;
#X obj 983 144 +~;
#X obj 1051 144 +~;
#X obj 29 144 +~;
#X msg 1120 92 \$1 1000;
#X obj 1120 118 osc~;
#X msg 1188 92 \$1 1000;
#X obj 1188 118 osc~;
#X msg 1256 92 \$1 1000;
#X obj 1256 118 osc~;
#X msg 1325 92 \$1 1000;
#X obj 1325 118 osc~;
#X msg 1393 92 \$1 1000;
#X obj 1393 118 osc~;
#X obj 1120 144 +~;
#X obj 1188 144 +~;
#X obj 1256 144 +~;
#X obj 1325 144 +~;
#X obj 1393 144 +~;
#X obj 1118 20 r num17;
#X obj 1186 20 r num18;
#X obj 1254 20 r num19;
#X obj 1323 20 r num20;
#X obj 1391 20 r num21;
#X obj 370 144 *~ 0.5;
#X obj 642 196 +~;
#X obj 642 149 *~ 0.5;
#X obj 87 240 r num1;
#X msg 89 312 \$1 1000;
#X obj 89 338 osc~;
#X obj 155 240 r num22;
#X msg 157 312 \$1 1000;
#X obj 157 338 osc~;
#X obj 223 240 r num23;
#X msg 225 312 \$1 1000;
#X obj 225 338 osc~;
#X obj 291 240 r num24;
#X msg 293 312 \$1 1000;
#X obj 293 338 osc~;
#X obj 360 240 r num25;
#X msg 362 312 \$1 1000;
#X obj 362 338 osc~;
#X obj 428 240 r num26;
#X msg 430 312 \$1 1000;
#X obj 430 338 osc~;
#X obj 496 240 r num27;
#X msg 498 312 \$1 1000;
#X obj 498 338 osc~;
#X obj 564 240 r num28;
#X msg 566 312 \$1 1000;
#X obj 566 338 osc~;
#X obj 632 240 r num29;
#X msg 634 312 \$1 1000;
#X obj 634 338 osc~;
#X obj 700 240 r num30;
#X msg 702 312 \$1 1000;
#X obj 702 338 osc~;
#X obj 768 240 r num31;
#X msg 770 312 \$1 1000;
#X obj 770 338 osc~;
#X obj 836 240 r num32;
#X msg 838 312 \$1 1000;
#X obj 838 338 osc~;
#X obj 905 240 r num33;
#X msg 907 312 \$1 1000;
#X obj 907 338 osc~;
#X obj 973 240 r num34;
#X msg 975 312 \$1 1000;
#X obj 975 338 osc~;
#X obj 1041 240 r num35;
#X msg 1043 312 \$1 1000;
#X obj 1043 338 osc~;
#X obj 1109 241 r num36;
#X msg 1111 312 \$1 1000;
#X obj 1111 338 osc~;
#X obj 157 364 +~;
#X obj 225 364 +~;
#X obj 293 364 +~;
#X obj 362 364 +~;
#X obj 430 411 +~;
#X obj 498 364 +~;
#X obj 566 364 +~;
#X obj 634 364 +~;
#X obj 770 364 +~;
#X obj 838 364 +~;
#X obj 907 364 +~;
#X obj 975 364 +~;
#X obj 1043 364 +~;
#X obj 1111 364 +~;
#X obj 89 364 +~;
#X msg 1180 312 \$1 1000;
#X obj 1180 338 osc~;
#X msg 1248 312 \$1 1000;
#X obj 1248 338 osc~;
#X msg 1316 312 \$1 1000;
#X obj 1316 338 osc~;
#X msg 1385 312 \$1 1000;
#X obj 1385 338 osc~;
#X msg 1453 312 \$1 1000;
#X obj 1453 338 osc~;
#X obj 1180 364 +~;
#X obj 1248 364 +~;
#X obj 1316 364 +~;
#X obj 1385 364 +~;
#X obj 1453 364 +~;
#X obj 1178 240 r num37;
#X obj 1246 240 r num38;
#X obj 1314 240 r num39;
#X obj 1383 240 r num40;
#X obj 1451 240 r num41;
#X obj 430 364 *~ 0.5;
#X obj 702 416 +~;
#X obj 702 369 *~ 0.5;
#X obj 142 478 r num1;
#X msg 144 550 \$1 1000;
#X obj 144 576 osc~;
#X obj 210 478 r num42;
#X msg 212 550 \$1 1000;
#X obj 212 576 osc~;
#X obj 278 478 r num43;
#X msg 280 550 \$1 1000;
#X obj 280 576 osc~;
#X obj 346 478 r num44;
#X msg 348 550 \$1 1000;
#X obj 348 576 osc~;
#X obj 415 478 r num45;
#X msg 417 550 \$1 1000;
#X obj 417 576 osc~;
#X obj 483 478 r num46;
#X msg 485 550 \$1 1000;
#X obj 485 576 osc~;
#X obj 551 478 r num47;
#X msg 553 550 \$1 1000;
#X obj 553 576 osc~;
#X obj 619 478 r num48;
#X msg 621 550 \$1 1000;
#X obj 621 576 osc~;
#X obj 687 478 r num49;
#X msg 689 550 \$1 1000;
#X obj 689 576 osc~;
#X obj 755 478 r num50;
#X msg 757 550 \$1 1000;
#X obj 757 576 osc~;
#X obj 823 478 r num51;
#X msg 825 550 \$1 1000;
#X obj 825 576 osc~;
#X obj 891 478 r num52;
#X msg 893 550 \$1 1000;
#X obj 893 576 osc~;
#X obj 960 478 r num53;
#X msg 962 550 \$1 1000;
#X obj 962 576 osc~;
#X obj 1028 478 r num54;
#X msg 1030 550 \$1 1000;
#X obj 1030 576 osc~;
#X obj 1096 478 r num55;
#X msg 1098 550 \$1 1000;
#X obj 1098 576 osc~;
#X obj 1164 479 r num56;
#X msg 1166 550 \$1 1000;
#X obj 1166 576 osc~;
#X obj 212 602 +~;
#X obj 280 602 +~;
#X obj 348 602 +~;
#X obj 417 602 +~;
#X obj 485 649 +~;
#X obj 553 602 +~;
#X obj 621 602 +~;
#X obj 689 602 +~;
#X obj 825 602 +~;
#X obj 893 602 +~;
#X obj 962 602 +~;
#X obj 1030 602 +~;
#X obj 1098 602 +~;
#X obj 1166 602 +~;
#X obj 144 602 +~;
#X msg 1235 550 \$1 1000;
#X obj 1235 576 osc~;
#X msg 1303 550 \$1 1000;
#X obj 1303 576 osc~;
#X msg 1371 550 \$1 1000;
#X obj 1371 576 osc~;
#X msg 1440 550 \$1 1000;
#X obj 1440 576 osc~;
#X msg 1508 550 \$1 1000;
#X obj 1508 576 osc~;
#X obj 1235 602 +~;
#X obj 1303 602 +~;
#X obj 1371 602 +~;
#X obj 1440 602 +~;
#X obj 1508 602 +~;
#X obj 1233 478 r num57;
#X obj 1301 478 r num58;
#X obj 1369 478 r num59;
#X obj 1438 478 r num60;
#X obj 1506 478 r num61;
#X obj 485 602 *~ 0.5;
#X obj 757 654 +~;
#X obj 757 607 *~ 0.5;
#X obj 205 692 r num1;
#X msg 207 764 \$1 1000;
#X obj 207 790 osc~;
#X obj 273 692 r num62;
#X msg 275 764 \$1 1000;
#X obj 275 790 osc~;
#X obj 341 692 r num63;
#X msg 343 764 \$1 1000;
#X obj 343 790 osc~;
#X obj 409 692 r num64;
#X msg 411 764 \$1 1000;
#X obj 411 790 osc~;
#X obj 478 692 r num65;
#X msg 480 764 \$1 1000;
#X obj 480 790 osc~;
#X obj 546 692 r num66;
#X msg 548 764 \$1 1000;
#X obj 548 790 osc~;
#X obj 614 692 r num67;
#X msg 616 764 \$1 1000;
#X obj 616 790 osc~;
#X obj 682 692 r num68;
#X msg 684 764 \$1 1000;
#X obj 684 790 osc~;
#X obj 750 692 r num69;
#X msg 752 764 \$1 1000;
#X obj 752 790 osc~;
#X obj 818 692 r num70;
#X msg 820 764 \$1 1000;
#X obj 820 790 osc~;
#X obj 886 692 r num71;
#X msg 888 764 \$1 1000;
#X obj 888 790 osc~;
#X obj 954 692 r num72;
#X msg 956 764 \$1 1000;
#X obj 956 790 osc~;
#X obj 1023 692 r num73;
#X msg 1025 764 \$1 1000;
#X obj 1025 790 osc~;
#X obj 1091 692 r num74;
#X msg 1093 764 \$1 1000;
#X obj 1093 790 osc~;
#X obj 1159 692 r num75;
#X msg 1161 764 \$1 1000;
#X obj 1161 790 osc~;
#X obj 1227 693 r num76;
#X msg 1229 764 \$1 1000;
#X obj 1229 790 osc~;
#X obj 275 816 +~;
#X obj 343 816 +~;
#X obj 411 816 +~;
#X obj 480 816 +~;
#X obj 548 863 +~;
#X obj 616 816 +~;
#X obj 684 816 +~;
#X obj 752 816 +~;
#X obj 888 816 +~;
#X obj 956 816 +~;
#X obj 1025 816 +~;
#X obj 1093 816 +~;
#X obj 1161 816 +~;
#X obj 1229 816 +~;
#X obj 207 816 +~;
#X msg 1298 764 \$1 1000;
#X obj 1298 790 osc~;
#X msg 1366 764 \$1 1000;
#X obj 1366 790 osc~;
#X msg 1434 764 \$1 1000;
#X obj 1434 790 osc~;
#X msg 1503 764 \$1 1000;
#X obj 1503 790 osc~;
#X msg 1571 764 \$1 1000;
#X obj 1571 790 osc~;
#X obj 1298 816 +~;
#X obj 1366 816 +~;
#X obj 1434 816 +~;
#X obj 1503 816 +~;
#X obj 1571 816 +~;
#X obj 1296 692 r num77;
#X obj 1364 692 r num78;
#X obj 1432 692 r num79;
#X obj 1501 692 r num80;
#X obj 1569 692 r num81;
#X obj 548 816 *~ 0.5;
#X obj 820 868 +~;
#X obj 820 821 *~ 0.5;
#X obj 110 172 r vol;
#X msg 110 198 \$1 1000;
#X obj 66 983 *~ 1;
#X obj 101 930 r vol;
#X msg 101 956 \$1 1000;
#X obj 2 275 dac~;
#X obj 59 1058 dac~;
#X obj 66 1019 bp~ 220 10;
#X obj 48 171 line~;
#X obj 10 234 lop~ 3521;
#X obj 123 388 r vol;
#X msg 123 414 \$1 1000;
#X obj 52 515 dac~;
#X obj 123 440 line~;
#X obj 60 474 lop~ 3521;
#X obj 73 562 r vol;
#X msg 73 588 \$1 1000;
#X obj 103 713 dac~;
#X obj 73 614 line~;
#X obj 111 672 lop~ 3521;
#X obj 138 767 r vol;
#X msg 138 793 \$1 1000;
#X obj 168 918 dac~;
#X obj 138 819 line~;
#X obj 176 877 lop~ 3521;
#X obj 60 448 *~;
#X obj 111 646 *~;
#X obj 176 851 *~;
#X obj 7 207 *~;
#X connect 0 0 1 0;
#X connect 1 0 2 0;
#X connect 2 0 62 0;
#X connect 3 0 4 0;
#X connect 4 0 5 0;
#X connect 5 0 48 0;
#X connect 6 0 7 0;
#X connect 7 0 8 0;
#X connect 8 0 49 0;
#X connect 9 0 10 0;
#X connect 10 0 11 0;
#X connect 11 0 50 0;
#X connect 12 0 13 0;
#X connect 13 0 14 0;
#X connect 14 0 51 0;
#X connect 15 0 16 0;
#X connect 16 0 17 0;
#X connect 17 0 83 0;
#X connect 18 0 19 0;
#X connect 19 0 20 0;
#X connect 20 0 53 0;
#X connect 21 0 22 0;
#X connect 22 0 23 0;
#X connect 23 0 54 0;
#X connect 24 0 25 0;
#X connect 25 0 26 0;
#X connect 26 0 55 0;
#X connect 27 0 28 0;
#X connect 28 0 29 0;
#X connect 29 0 85 0;
#X connect 30 0 31 0;
#X connect 31 0 32 0;
#X connect 32 0 56 0;
#X connect 33 0 34 0;
#X connect 34 0 35 0;
#X connect 35 0 57 0;
#X connect 36 0 37 0;
#X connect 37 0 38 0;
#X connect 38 0 58 0;
#X connect 39 0 40 0;
#X connect 40 0 41 0;
#X connect 41 0 59 0;
#X connect 42 0 43 0;
#X connect 43 0 44 0;
#X connect 44 0 60 0;
#X connect 45 0 46 0;
#X connect 46 0 47 0;
#X connect 47 0 61 0;
#X connect 48 0 62 1;
#X connect 49 0 48 1;
#X connect 50 0 49 1;
#X connect 51 0 50 1;
#X connect 52 0 51 1;
#X connect 53 0 52 1;
#X connect 54 0 53 1;
#X connect 55 0 54 1;
#X connect 56 0 84 1;
#X connect 57 0 56 1;
#X connect 58 0 57 1;
#X connect 59 0 58 1;
#X connect 60 0 59 1;
#X connect 61 0 60 1;
#X connect 62 0 372 0;
#X connect 63 0 64 0;
#X connect 64 0 73 0;
#X connect 65 0 66 0;
#X connect 66 0 74 0;
#X connect 67 0 68 0;
#X connect 68 0 75 0;
#X connect 69 0 70 0;
#X connect 70 0 76 0;
#X connect 71 0 72 0;
#X connect 72 0 77 0;
#X connect 73 0 61 1;
#X connect 74 0 73 1;
#X connect 75 0 74 1;
#X connect 76 0 75 1;
#X connect 77 0 76 1;
#X connect 78 0 63 0;
#X connect 79 0 65 0;
#X connect 80 0 67 0;
#X connect 81 0 69 0;
#X connect 82 0 71 0;
#X connect 83 0 52 0;
#X connect 84 0 55 1;
#X connect 85 0 84 0;
#X connect 86 0 87 0;
#X connect 87 0 88 0;
#X connect 88 0 148 0;
#X connect 89 0 90 0;
#X connect 90 0 91 0;
#X connect 91 0 134 0;
#X connect 92 0 93 0;
#X connect 93 0 94 0;
#X connect 94 0 135 0;
#X connect 95 0 96 0;
#X connect 96 0 97 0;
#X connect 97 0 136 0;
#X connect 98 0 99 0;
#X connect 99 0 100 0;
#X connect 100 0 137 0;
#X connect 101 0 102 0;
#X connect 102 0 103 0;
#X connect 103 0 169 0;
#X connect 104 0 105 0;
#X connect 105 0 106 0;
#X connect 106 0 139 0;
#X connect 107 0 108 0;
#X connect 108 0 109 0;
#X connect 109 0 140 0;
#X connect 110 0 111 0;
#X connect 111 0 112 0;
#X connect 112 0 141 0;
#X connect 113 0 114 0;
#X connect 114 0 115 0;
#X connect 115 0 171 0;
#X connect 116 0 117 0;
#X connect 117 0 118 0;
#X connect 118 0 142 0;
#X connect 119 0 120 0;
#X connect 120 0 121 0;
#X connect 121 0 143 0;
#X connect 122 0 123 0;
#X connect 123 0 124 0;
#X connect 124 0 144 0;
#X connect 125 0 126 0;
#X connect 126 0 127 0;
#X connect 127 0 145 0;
#X connect 128 0 129 0;
#X connect 129 0 130 0;
#X connect 130 0 146 0;
#X connect 131 0 132 0;
#X connect 132 0 133 0;
#X connect 133 0 147 0;
#X connect 134 0 148 1;
#X connect 135 0 134 1;
#X connect 136 0 135 1;
#X connect 137 0 136 1;
#X connect 138 0 137 1;
#X connect 139 0 138 1;
#X connect 140 0 139 1;
#X connect 141 0 140 1;
#X connect 142 0 170 1;
#X connect 143 0 142 1;
#X connect 144 0 143 1;
#X connect 145 0 144 1;
#X connect 146 0 145 1;
#X connect 147 0 146 1;
#X connect 148 0 369 0;
#X connect 149 0 150 0;
#X connect 150 0 159 0;
#X connect 151 0 152 0;
#X connect 152 0 160 0;
#X connect 153 0 154 0;
#X connect 154 0 161 0;
#X connect 155 0 156 0;
#X connect 156 0 162 0;
#X connect 157 0 158 0;
#X connect 158 0 163 0;
#X connect 159 0 147 1;
#X connect 160 0 159 1;
#X connect 161 0 160 1;
#X connect 162 0 161 1;
#X connect 163 0 162 1;
#X connect 164 0 149 0;
#X connect 165 0 151 0;
#X connect 166 0 153 0;
#X connect 167 0 155 0;
#X connect 168 0 157 0;
#X connect 169 0 138 0;
#X connect 170 0 141 1;
#X connect 171 0 170 0;
#X connect 172 0 173 0;
#X connect 173 0 174 0;
#X connect 174 0 234 0;
#X connect 175 0 176 0;
#X connect 176 0 177 0;
#X connect 177 0 220 0;
#X connect 178 0 179 0;
#X connect 179 0 180 0;
#X connect 180 0 221 0;
#X connect 181 0 182 0;
#X connect 182 0 183 0;
#X connect 183 0 222 0;
#X connect 184 0 185 0;
#X connect 185 0 186 0;
#X connect 186 0 223 0;
#X connect 187 0 188 0;
#X connect 188 0 189 0;
#X connect 189 0 255 0;
#X connect 190 0 191 0;
#X connect 191 0 192 0;
#X connect 192 0 225 0;
#X connect 193 0 194 0;
#X connect 194 0 195 0;
#X connect 195 0 226 0;
#X connect 196 0 197 0;
#X connect 197 0 198 0;
#X connect 198 0 227 0;
#X connect 199 0 200 0;
#X connect 200 0 201 0;
#X connect 201 0 257 0;
#X connect 202 0 203 0;
#X connect 203 0 204 0;
#X connect 204 0 228 0;
#X connect 205 0 206 0;
#X connect 206 0 207 0;
#X connect 207 0 229 0;
#X connect 208 0 209 0;
#X connect 209 0 210 0;
#X connect 210 0 230 0;
#X connect 211 0 212 0;
#X connect 212 0 213 0;
#X connect 213 0 231 0;
#X connect 214 0 215 0;
#X connect 215 0 216 0;
#X connect 216 0 232 0;
#X connect 217 0 218 0;
#X connect 218 0 219 0;
#X connect 219 0 233 0;
#X connect 220 0 234 1;
#X connect 221 0 220 1;
#X connect 222 0 221 1;
#X connect 223 0 222 1;
#X connect 224 0 223 1;
#X connect 225 0 224 1;
#X connect 226 0 225 1;
#X connect 227 0 226 1;
#X connect 228 0 256 1;
#X connect 229 0 228 1;
#X connect 230 0 229 1;
#X connect 231 0 230 1;
#X connect 232 0 231 1;
#X connect 233 0 232 1;
#X connect 234 0 370 0;
#X connect 235 0 236 0;
#X connect 236 0 245 0;
#X connect 237 0 238 0;
#X connect 238 0 246 0;
#X connect 239 0 240 0;
#X connect 240 0 247 0;
#X connect 241 0 242 0;
#X connect 242 0 248 0;
#X connect 243 0 244 0;
#X connect 244 0 249 0;
#X connect 245 0 233 1;
#X connect 246 0 245 1;
#X connect 247 0 246 1;
#X connect 248 0 247 1;
#X connect 249 0 248 1;
#X connect 250 0 235 0;
#X connect 251 0 237 0;
#X connect 252 0 239 0;
#X connect 253 0 241 0;
#X connect 254 0 243 0;
#X connect 255 0 224 0;
#X connect 256 0 227 1;
#X connect 257 0 256 0;
#X connect 258 0 259 0;
#X connect 259 0 260 0;
#X connect 260 0 320 0;
#X connect 261 0 262 0;
#X connect 262 0 263 0;
#X connect 263 0 306 0;
#X connect 264 0 265 0;
#X connect 265 0 266 0;
#X connect 266 0 307 0;
#X connect 267 0 268 0;
#X connect 268 0 269 0;
#X connect 269 0 308 0;
#X connect 270 0 271 0;
#X connect 271 0 272 0;
#X connect 272 0 309 0;
#X connect 273 0 274 0;
#X connect 274 0 275 0;
#X connect 275 0 341 0;
#X connect 276 0 277 0;
#X connect 277 0 278 0;
#X connect 278 0 311 0;
#X connect 279 0 280 0;
#X connect 280 0 281 0;
#X connect 281 0 312 0;
#X connect 282 0 283 0;
#X connect 283 0 284 0;
#X connect 284 0 313 0;
#X connect 285 0 286 0;
#X connect 286 0 287 0;
#X connect 287 0 343 0;
#X connect 288 0 289 0;
#X connect 289 0 290 0;
#X connect 290 0 314 0;
#X connect 291 0 292 0;
#X connect 292 0 293 0;
#X connect 293 0 315 0;
#X connect 294 0 295 0;
#X connect 295 0 296 0;
#X connect 296 0 316 0;
#X connect 297 0 298 0;
#X connect 298 0 299 0;
#X connect 299 0 317 0;
#X connect 300 0 301 0;
#X connect 301 0 302 0;
#X connect 302 0 318 0;
#X connect 303 0 304 0;
#X connect 304 0 305 0;
#X connect 305 0 319 0;
#X connect 306 0 320 1;
#X connect 307 0 306 1;
#X connect 308 0 307 1;
#X connect 309 0 308 1;
#X connect 310 0 309 1;
#X connect 311 0 310 1;
#X connect 312 0 311 1;
#X connect 313 0 312 1;
#X connect 314 0 342 1;
#X connect 315 0 314 1;
#X connect 316 0 315 1;
#X connect 317 0 316 1;
#X connect 318 0 317 1;
#X connect 319 0 318 1;
#X connect 320 0 371 0;
#X connect 321 0 322 0;
#X connect 322 0 331 0;
#X connect 323 0 324 0;
#X connect 324 0 332 0;
#X connect 325 0 326 0;
#X connect 326 0 333 0;
#X connect 327 0 328 0;
#X connect 328 0 334 0;
#X connect 329 0 330 0;
#X connect 330 0 335 0;
#X connect 331 0 319 1;
#X connect 332 0 331 1;
#X connect 333 0 332 1;
#X connect 334 0 333 1;
#X connect 335 0 334 1;
#X connect 336 0 321 0;
#X connect 337 0 323 0;
#X connect 338 0 325 0;
#X connect 339 0 327 0;
#X connect 340 0 329 0;
#X connect 341 0 310 0;
#X connect 342 0 313 1;
#X connect 343 0 342 0;
#X connect 344 0 345 0;
#X connect 345 0 352 0;
#X connect 346 0 351 0;
#X connect 347 0 348 0;
#X connect 348 0 346 1;
#X connect 351 0 350 0;
#X connect 351 0 350 1;
#X connect 352 0 372 1;
#X connect 353 0 349 0;
#X connect 354 0 355 0;
#X connect 355 0 357 0;
#X connect 357 0 369 1;
#X connect 358 0 356 0;
#X connect 359 0 360 0;
#X connect 360 0 362 0;
#X connect 362 0 370 1;
#X connect 363 0 361 0;
#X connect 364 0 365 0;
#X connect 365 0 367 0;
#X connect 367 0 371 1;
#X connect 368 0 366 0;
#X connect 369 0 358 0;
#X connect 370 0 363 0;
#X connect 371 0 368 0;
#X connect 372 0 353 0;
